<svg xmlns="http://www.w3.org/2000/svg" viewBox="0 0 70 70"><defs><style>.cls-1{fill:#1d1d1b;}.cls-2{fill:#fff;}</style></defs><title>noirgide</title><g id="Calque_2" data-name="Calque 2"><g id="Calque_1-2" data-name="Calque 1"><path class="cls-1" d="M70,35A35,35,0,1,1,35,0,35,35,0,0,1,70,35Z"/><polygon class="cls-2" points="27.45 19.41 29.29 17.57 27.45 15.73 27.45 15.73 28.47 14.71 31.33 17.57 28.47 20.43 27.45 19.41 27.45 19.41"/><polygon class="cls-2" points="25.19 41.6 25.19 26.36 26.63 26.36 26.63 41.6 25.19 41.6 25.19 41.6"/><path class="cls-2" d="M44.3,17.78V29.37A8.18,8.18,0,1,0,45.74,34V17.78ZM37.57,40.73A6.73,6.73,0,1,1,44.3,34h0A6.74,6.74,0,0,1,37.57,40.73Z"/><path class="cls-2" d="M62.7,36.74a6.73,6.73,0,0,1-12.84-2H64.73V34a8.21,8.21,0,1,0-.48,2.74Zm-6.15-9.47a6.75,6.75,0,0,1,6.7,6H49.86A6.75,6.75,0,0,1,56.55,27.27Z"/><path class="cls-2" d="M22.2,34h0a8.19,8.19,0,1,0-1.44,4.63v4.1a6.68,6.68,0,0,1-1.45,4.17h0a6.89,6.89,0,0,1-2,1.69v0a6.72,6.72,0,0,1-3.3.88,6.63,6.63,0,0,1-2.14-.36l-.5,1.36a8.21,8.21,0,0,0,2.64.44,8.12,8.12,0,0,0,6-2.67v0a8.14,8.14,0,0,0,2.14-5.52ZM14,40.73A6.73,6.73,0,1,1,20.76,34,6.73,6.73,0,0,1,14,40.73Z"/></g></g></svg>